# xmcd
#
# Track frame offsets: 
#        150
#        12434
#        22818
#        33642
#        46168
#        58731
#        70841
#        87088
#        103073
#        115784
#        131164
#        149947
#        163050
#        176273
#        187989
#        208091
#        218818
#        231159
#        242823
#        267642
#
# Disc length: 3744 seconds
#
# Revision: 2
# Processed by: cddbd v1.5.2PL0 Copyright (c) Steve Scherf et al.
# Submitted via: ExactAudioCopy v1.3
#
DISCID=280e9e14
DTITLE=Various Artist - Blues Giants, The Essential Songbook [CD2)
DYEAR=1900
DGENRE=Blues
TTITLE0=Howlin' Wolf - Streamline Woman
TTITLE1=Sonny Boy Williamson - Let Your Conscience Be Your Guide
TTITLE2=Muddy Waters - Key To The Highway
TTITLE3=Lightning Hopkins - Life I Use To Live
TTITLE4=T.Bone Walker - Stormin' Monday Blues
TTITLE5=John Lee Hooker - I'm In The Mood For Love
TTITLE6=Memphis Slim - Blue and Disgusted
TTITLE7=Jimmy Reed - Cold and Lonesome
TTITLE8=Lowell Fulson - Rolling Blues
TTITLE9=Little Walter and Otis Rush - Walter's Blues
TTITLE10=Muddy Waters - Got My Mojo working
TTITLE11=Buster Brown - Fannie Mae
TTITLE12=John Lee Hooker - One Bourbon, One Scotch, One Beer
TTITLE13=Little Milton - Losin' Hand
TTITLE14=Lightning Hopkins - Glory Be
TTITLE15=Willie Dixon and Memphis Slim - Crazy For My Baby
TTITLE16=Sonny Boy Williamson - Ninety Nine
TTITLE17=Howlin' Wolf - Louise
TTITLE18=Screamin' Jay Hawkins - Constipation Blues
TTITLE19=Muddy Waters - Can't Lose What Ain't Never Had
EXTD=
EXTT0=
EXTT1=
EXTT2=
EXTT3=
EXTT4=
EXTT5=
EXTT6=
EXTT7=
EXTT8=
EXTT9=
EXTT10=
EXTT11=
EXTT12=
EXTT13=
EXTT14=
EXTT15=
EXTT16=
EXTT17=
EXTT18=
EXTT19=
PLAYORDER=
